<svg width="17" height="17" viewBox="0 0 17 17" fill="none" xmlns="http://www.w3.org/2000/svg">
<path fill-rule="evenodd" clip-rule="evenodd" d="M1.87789 0H5.60727C6.64272 0 7.48515 0.842429 7.48515 1.87789V5.60727C7.48515 6.64272 6.64272 7.48515 5.60727 7.48515H1.87789C0.842429 7.48515 0 6.64272 0 5.60727V1.87789C0 0.842429 0.842429 0 1.87789 0ZM5.60727 6.21648C5.94318 6.21648 6.21648 5.94318 6.21648 5.60727V1.87789C6.21648 1.54197 5.94318 1.26867 5.60727 1.26867H1.87789C1.54197 1.26867 1.26867 1.54197 1.26867 1.87789V5.60727C1.26867 5.94318 1.54197 6.21648 1.87789 6.21648H5.60727ZM10.6572 0H14.3364C15.3857 0 16.2394 0.853688 16.2394 1.903V5.58215C16.2394 6.63146 15.3857 7.48515 14.3364 7.48515H10.6572C9.6079 7.48515 8.75421 6.63146 8.75421 5.58215V1.903C8.75421 0.853688 9.6079 0 10.6572 0ZM14.3364 6.21648C14.6861 6.21648 14.9707 5.93192 14.9707 5.58215V1.903C14.9707 1.55323 14.6861 1.26867 14.3364 1.26867H10.6572C10.3074 1.26867 10.0229 1.55323 10.0229 1.903V5.58215C10.0229 5.93192 10.3074 6.21648 10.6572 6.21648H14.3364ZM5.60727 8.75382H1.87789C0.842429 8.75382 0 9.59625 0 10.6317V14.3611C0 15.3965 0.842429 16.239 1.87789 16.239H5.60727C6.64272 16.239 7.48515 15.3965 7.48515 14.3611V10.6317C7.48515 9.59625 6.64272 8.75382 5.60727 8.75382ZM6.21648 14.3611C6.21648 14.697 5.94318 14.9703 5.60727 14.9703H1.87789C1.54197 14.9703 1.26867 14.697 1.26867 14.3611V10.6317C1.26867 10.2958 1.54197 10.0225 1.87789 10.0225H5.60727C5.94318 10.0225 6.21648 10.2958 6.21648 10.6317V14.3611ZM13.8425 8.54915L16.444 11.1507C17.186 11.8927 17.186 13.1 16.444 13.842L13.8425 16.4435C13.1005 17.1855 11.8932 17.1855 11.1512 16.4435L8.54965 13.842C7.80767 13.1 7.80767 11.8927 8.54965 11.1507L11.1512 8.54915C11.8932 7.80717 13.1005 7.80717 13.8425 8.54915ZM12.0483 15.5464C12.2956 15.7937 12.698 15.7937 12.9454 15.5464L15.5469 12.9449C15.7942 12.6975 15.7942 12.2951 15.5469 12.0478L12.9454 9.44623C12.698 9.19891 12.2956 9.19891 12.0483 9.44623L9.44674 12.0478C9.19941 12.2951 9.19941 12.6975 9.44674 12.9449L12.0483 15.5464Z" fill="currentColor"/>
</svg>
