<?xml version="1.0" encoding="utf-8"?><svg xmlns="http://www.w3.org/2000/svg" xmlns:xlink="http://www.w3.org/1999/xlink"><symbol fill="none" viewBox="0 0 17 17" id="burger" xmlns="http://www.w3.org/2000/svg"><path fill-rule="evenodd" clip-rule="evenodd" d="M1.878 0h3.73a1.88 1.88 0 011.877 1.878v3.73a1.88 1.88 0 01-1.878 1.877h-3.73A1.88 1.88 0 010 5.607v-3.73A1.88 1.88 0 011.878 0zm3.73 6.216a.61.61 0 00.608-.609v-3.73a.61.61 0 00-.609-.608h-3.73a.61.61 0 00-.608.609v3.73a.61.61 0 00.609.608h3.73zM10.657 0h3.678c1.05 0 1.903.854 1.903 1.903v3.68a1.905 1.905 0 01-1.903 1.902h-3.679a1.905 1.905 0 01-1.903-1.903V1.903A1.906 1.906 0 0110.657 0zm3.678 6.216c.35 0 .635-.284.635-.634V1.903a.635.635 0 00-.635-.634h-3.679a.635.635 0 00-.634.634v3.68c0 .349.284.633.634.633h3.68zM5.607 8.754h-3.73A1.88 1.88 0 000 10.632v3.73a1.88 1.88 0 001.878 1.877h3.73a1.88 1.88 0 001.877-1.878v-3.73a1.88 1.88 0 00-1.878-1.877zm.61 5.607a.61.61 0 01-.61.61h-3.73a.61.61 0 01-.608-.61v-3.73a.61.61 0 01.609-.608h3.73a.61.61 0 01.608.609v3.73zm7.625-5.812l2.602 2.602a1.905 1.905 0 010 2.691l-2.601 2.601a1.905 1.905 0 01-2.692 0l-2.601-2.6a1.905 1.905 0 010-2.691l2.601-2.602a1.905 1.905 0 012.691 0zm-1.794 6.997c.248.248.65.248.897 0l2.602-2.601a.635.635 0 000-.897l-2.602-2.602a.635.635 0 00-.897 0l-2.601 2.602a.635.635 0 000 .897l2.601 2.601z" fill="currentColor"/></symbol></svg>